{
  "accessors": [
    {
      "bufferView": 2,
      "componentType": 5126,
      "count": 10570,
      "max": [
        0.3034929931163788,
        -0.14030100405216217,
        0.17900300025939941
      ],
      "min": [
        -0.3034929931163788,
        -1.0,
        -0.2682420015335083
      ],
      "type": "VEC3"
    },
    {
      "bufferView": 2,
      "byteOffset": 126840,
      "componentType": 5126,
      "count": 10570,
      "max": [
        0.999184250831604,
        0.9989732503890991,
        0.999779224395752
      ],
      "min": [
        -0.9997187852859497,
        -0.9999408721923828,
        -0.9999323487281799
      ],
      "type": "VEC3"
    },
    {
      "bufferView": 3,
      "componentType": 5126,
      "count": 10570,
      "max": [
        0.9999502301216125,
        0.9999836087226868,
        0.9993131756782532,
        1.0
      ],
      "min": [
        -0.9984739422798157,
        -0.9987896680831909,
        -0.9997798204421997,
        -1.0
      ],
      "type": "VEC4"
    },
    {
      "bufferView": 1,
      "componentType": 5126,
      "count": 10570,
      "max": [
        0.989687979221344,
        0.977092981338501
      ],
      "min": [
        0.010281000286340714,
        0.009482000023126602
      ],
      "type": "VEC2"
    },
    {
      "bufferView": 1,
      "byteOffset": 84560,
      "componentType": 5126,
      "count": 10570,
      "max": [
        0.989687979221344,
        0.977092981338501
      ],
      "min": [
        0.010281000286340714,
        0.009482000023126602
      ],
      "type": "VEC2"
    },
    {
      "bufferView": 1,
      "byteOffset": 169120,
      "componentType": 5126,
      "count": 10570,
      "max": [
        0.989687979221344,
        0.977092981338501
      ],
      "min": [
        0.010281000286340714,
        0.009482000023126602
      ],
      "type": "VEC2"
    },
    {
      "bufferView": 1,
      "byteOffset": 253680,
      "componentType": 5126,
      "count": 10570,
      "max": [
        0.989687979221344,
        0.977092981338501
      ],
      "min": [
        0.010281000286340714,
        0.009482000023126602
      ],
      "type": "VEC2"
    },
    {
      "bufferView": 0,
      "componentType": 5125,
      "count": 42837,
      "type": "SCALAR"
    },
    {
      "bufferView": 2,
      "byteOffset": 253680,
      "componentType": 5126,
      "count": 285,
      "max": [
        0.17800499498844147,
        0.04691879823803902,
        0.22056600451469421
      ],
      "min": [
        -0.3017289936542511,
        -0.232354998588562,
        -0.21377000212669373
      ],
      "type": "VEC3"
    },
    {
      "bufferView": 2,
      "byteOffset": 257100,
      "componentType": 5126,
      "count": 285,
      "max": [
        0.9934006333351135,
        0.9960041046142578,
        0.9952508807182312
      ],
      "min": [
        -0.9987713694572449,
        -0.9910891056060791,
        -0.9901366233825684
      ],
      "type": "VEC3"
    },
    {
      "bufferView": 3,
      "byteOffset": 169120,
      "componentType": 5126,
      "count": 285,
      "max": [
        0.9990808367729187,
        0.9999101758003235,
        0.9831571578979492,
        1.0
      ],
      "min": [
        -0.9997384548187256,
        -0.9999767541885376,
        -0.9857955574989319,
        -1.0
      ],
      "type": "VEC4"
    },
    {
      "bufferView": 1,
      "byteOffset": 338240,
      "componentType": 5126,
      "count": 285,
      "max": [
        0.9909049868583679,
        0.9632269740104675
      ],
      "min": [
        0.00571299996227026,
        0.002581000095233321
      ],
      "type": "VEC2"
    },
    {
      "bufferView": 0,
      "byteOffset": 171348,
      "componentType": 5125,
      "count": 1149,
      "type": "SCALAR"
    },
    {
      "bufferView": 2,
      "byteOffset": 260520,
      "componentType": 5126,
      "count": 2422,
      "max": [
        0.08806479722261429,
        1.0,
        0.2682420015335083
      ],
      "min": [
        -0.1015859991312027,
        0.7449269890785217,
        -0.05144650116562843
      ],
      "type": "VEC3"
    },
    {
      "bufferView": 2,
      "byteOffset": 289584,
      "componentType": 5126,
      "count": 2422,
      "max": [
        0.9999827742576599,
        0.9992291331291199,
        0.9999839067459106
      ],
      "min": [
        -0.9999827742576599,
        -0.9999205470085144,
        -0.9991425275802612
      ],
      "type": "VEC3"
    },
    {
      "bufferView": 3,
      "byteOffset": 173680,
      "componentType": 5126,
      "count": 2422,
      "max": [
        0.9892032742500305,
        0.9984557628631592,
        0.9996978044509888,
        1.0
      ],
      "min": [
        -0.9999750256538391,
        -0.9919334053993225,
        -0.998117208480835,
        -1.0
      ],
      "type": "VEC4"
    },
    {
      "bufferView": 1,
      "byteOffset": 340520,
      "componentType": 5126,
      "count": 2422,
      "max": [
        0.9912109971046448,
        0.9913470149040222
      ],
      "min": [
        0.005714000202715397,
        0.005714000202715397
      ],
      "type": "VEC2"
    },
    {
      "bufferView": 0,
      "byteOffset": 175944,
      "componentType": 5125,
      "count": 3450,
      "type": "SCALAR"
    },
    {
      "bufferView": 2,
      "byteOffset": 318648,
      "componentType": 5126,
      "count": 179,
      "max": [
        0.19881799817085266,
        -0.13283400237560272,
        0.055973801761865616
      ],
      "min": [
        -0.13678200542926788,
        -0.28224900364875793,
        -0.1058029979467392
      ],
      "type": "VEC3"
    },
    {
      "bufferView": 2,
      "byteOffset": 320796,
      "componentType": 5126,
      "count": 179,
      "max": [
        0.874127984046936,
        0.9969459772109985,
        0.9540153741836548
      ],
      "min": [
        -0.9683626294136047,
        -0.9953936338424683,
        -0.9751294851303101
      ],
      "type": "VEC3"
    },
    {
      "bufferView": 3,
      "byteOffset": 212432,
      "componentType": 5126,
      "count": 179,
      "max": [
        0.9992135167121887,
        0.9486643671989441,
        0.9456101059913635,
        1.0
      ],
      "min": [
        -0.9999087452888489,
        -0.9712822437286377,
        -0.9182602167129517,
        -1.0
      ],
      "type": "VEC4"
    },
    {
      "bufferView": 1,
      "byteOffset": 359896,
      "componentType": 5126,
      "count": 179,
      "max": [
        0.8135740160942078,
        0.9932739734649658
      ],
      "min": [
        0.005714000202715397,
        0.004383999854326248
      ],
      "type": "VEC2"
    },
    {
      "bufferView": 0,
      "byteOffset": 189744,
      "componentType": 5125,
      "count": 570,
      "type": "SCALAR"
    },
    {
      "bufferView": 2,
      "byteOffset": 322944,
      "componentType": 5126,
      "count": 3779,
      "max": [
        0.2112320065498352,
        -0.2690730094909668,
        0.14592400193214417
      ],
      "min": [
        -0.2316409945487976,
        -0.5642889738082886,
        -0.08733239769935608
      ],
      "type": "VEC3"
    },
    {
      "bufferView": 2,
      "byteOffset": 368292,
      "componentType": 5126,
      "count": 3779,
      "max": [
        0.9996797442436218,
        0.9984594583511353,
        0.9999037384986877
      ],
      "min": [
        -0.9936392307281494,
        -0.9970349073410034,
        -0.9997192621231079
      ],
      "type": "VEC3"
    },
    {
      "bufferView": 3,
      "byteOffset": 215296,
      "componentType": 5126,
      "count": 3779,
      "max": [
        0.9992355108261108,
        0.998896062374115,
        0.9992533326148987,
        1.0
      ],
      "min": [
        -0.9988782405853271,
        -0.9999495148658752,
        -0.9993577599525452,
        -1.0
      ],
      "type": "VEC4"
    },
    {
      "bufferView": 1,
      "byteOffset": 361328,
      "componentType": 5126,
      "count": 3779,
      "max": [
        0.9913920164108276,
        0.9911640286445618
      ],
      "min": [
        0.005714000202715397,
        0.005714000202715397
      ],
      "type": "VEC2"
    },
    {
      "bufferView": 0,
      "byteOffset": 192024,
      "componentType": 5125,
      "count": 7560,
      "type": "SCALAR"
    },
    {
      "bufferView": 2,
      "byteOffset": 413640,
      "componentType": 5126,
      "count": 337,
      "max": [
        0.19520500302314758,
        0.7643979787826538,
        0.1795250028371811
      ],
      "min": [
        -0.15965400636196136,
        -0.2993150055408478,
        -0.22090700268745422
      ],
      "type": "VEC3"
    },
    {
      "bufferView": 2,
      "byteOffset": 417684,
      "componentType": 5126,
      "count": 337,
      "max": [
        0.9923755526542664,
        0.9976402521133423,
        0.9733172655105591
      ],
      "min": [
        -0.9975405335426331,
        -0.9957358837127686,
        -0.9992477893829346
      ],
      "type": "VEC3"
    },
    {
      "bufferView": 3,
      "byteOffset": 275760,
      "componentType": 5126,
      "count": 337,
      "max": [
        0.9976680874824524,
        0.9798169732093811,
        0.9990699887275696,
        1.0
      ],
      "min": [
        -0.9978280067443848,
        -0.9965261816978455,
        -0.9994494318962097,
        1.0
      ],
      "type": "VEC4"
    },
    {
      "bufferView": 1,
      "byteOffset": 391560,
      "componentType": 5126,
      "count": 337,
      "max": [
        0.99726402759552,
        0.9999200105667114
      ],
      "min": [
        -0.0027799999807029963,
        0.06517300009727478
      ],
      "type": "VEC2"
    },
    {
      "bufferView": 0,
      "byteOffset": 222264,
      "componentType": 5125,
      "count": 1260,
      "type": "SCALAR"
    },
    {
      "bufferView": 2,
      "byteOffset": 421728,
      "componentType": 5126,
      "count": 4544,
      "max": [
        0.07173530012369156,
        0.9124630093574524,
        0.26037201285362244
      ],
      "min": [
        -0.08522769808769226,
        0.7799800038337708,
        0.10236500203609467
      ],
      "type": "VEC3"
    },
    {
      "bufferView": 2,
      "byteOffset": 476256,
      "componentType": 5126,
      "count": 4544,
      "max": [
        0.9999866485595703,
        0.9995650053024292,
        0.9987146258354187
      ],
      "min": [
        -0.9999866485595703,
        -0.9996504783630371,
        -0.9987018704414368
      ],
      "type": "VEC3"
    },
    {
      "bufferView": 3,
      "byteOffset": 281152,
      "componentType": 5126,
      "count": 4544,
      "max": [
        0.999889075756073,
        0.9999569058418274,
        0.9985589981079102,
        1.0
      ],
      "min": [
        -0.999966561794281,
        -0.9999978542327881,
        -0.9989437460899353,
        -1.0
      ],
      "type": "VEC4"
    },
    {
      "bufferView": 1,
      "byteOffset": 394256,
      "componentType": 5126,
      "count": 4544,
      "max": [
        0.9898229837417603,
        0.9902529716491699
      ],
      "min": [
        0.005714000202715397,
        0.005714000202715397
      ],
      "type": "VEC2"
    },
    {
      "bufferView": 0,
      "byteOffset": 227304,
      "componentType": 5125,
      "count": 11724,
      "type": "SCALAR"
    },
    {
      "bufferView": 2,
      "byteOffset": 530784,
      "componentType": 5126,
      "count": 376,
      "max": [
        -0.0451028011739254,
        -0.11108999699354172,
        0.13991999626159668
      ],
      "min": [
        -0.18253499269485474,
        -0.22076700627803802,
        -0.015072300098836422
      ],
      "type": "VEC3"
    },
    {
      "bufferView": 2,
      "byteOffset": 535296,
      "componentType": 5126,
      "count": 376,
      "max": [
        0.9993662238121033,
        0.9984298944473267,
        0.9741451144218445
      ],
      "min": [
        -0.9756593704223633,
        -0.9937788844108582,
        -0.959599494934082
      ],
      "type": "VEC3"
    },
    {
      "bufferView": 3,
      "byteOffset": 353856,
      "componentType": 5126,
      "count": 376,
      "max": [
        0.996575653553009,
        0.9960700273513794,
        0.8785589337348938,
        1.0
      ],
      "min": [
        -0.8916723728179932,
        -0.7620154023170471,
        -0.9990568161010742,
        1.0
      ],
      "type": "VEC4"
    },
    {
      "bufferView": 1,
      "byteOffset": 430608,
      "componentType": 5126,
      "count": 376,
      "max": [
        0.9782869815826416,
        0.991133987903595
      ],
      "min": [
        0.05999999865889549,
        0.005714000202715397
      ],
      "type": "VEC2"
    },
    {
      "bufferView": 0,
      "byteOffset": 274200,
      "componentType": 5125,
      "count": 552,
      "type": "SCALAR"
    }
  ],
  "asset": {
    "extras": {
      "author": "Enas (https://sketchfab.com/Enasgf)",
      "license": "CC-BY-4.0 (http://creativecommons.org/licenses/by/4.0/)",
      "source": "https://sketchfab.com/3d-models/disgestive-system-e69c787cf4344342a29be3e324d2f8d9",
      "title": "Disgestive system"
    },
    "generator": "Sketchfab-12.68.0",
    "version": "2.0"
  },
  "bufferViews": [
    {
      "buffer": 0,
      "byteLength": 276408,
      "name": "floatBufferViews",
      "target": 34963
    },
    {
      "buffer": 0,
      "byteLength": 433616,
      "byteOffset": 276408,
      "byteStride": 8,
      "name": "floatBufferViews",
      "target": 34962
    },
    {
      "buffer": 0,
      "byteLength": 539808,
      "byteOffset": 710024,
      "byteStride": 12,
      "name": "floatBufferViews",
      "target": 34962
    },
    {
      "buffer": 0,
      "byteLength": 359872,
      "byteOffset": 1249832,
      "byteStride": 16,
      "name": "floatBufferViews",
      "target": 34962
    }
  ],
  "buffers": [
    {
      "byteLength": 1609704,
      "uri": "scene.bin"
    }
  ],
  "images": [
    {
      "uri": "textures/bladder_baseColor.jpeg"
    },
    {
      "uri": "textures/bladder_metallicRoughness.png"
    },
    {
      "uri": "textures/bladder_normal.png"
    },
    {
      "uri": "textures/teeth_baseColor.jpeg"
    },
    {
      "uri": "textures/teeth_metallicRoughness.png"
    },
    {
      "uri": "textures/teeth_normal.png"
    },
    {
      "uri": "textures/stomach_baseColor.jpeg"
    },
    {
      "uri": "textures/stomach_metallicRoughness.png"
    },
    {
      "uri": "textures/stomach_normal.png"
    },
    {
      "uri": "textures/small_intense_baseColor.jpeg"
    },
    {
      "uri": "textures/small_intense_metallicRoughness.png"
    },
    {
      "uri": "textures/small_intense_normal.png"
    },
    {
      "uri": "textures/pancreas_baseColor.jpeg"
    },
    {
      "uri": "textures/pancreas_metallicRoughness.png"
    },
    {
      "uri": "textures/pancreas_normal.png"
    },
    {
      "uri": "textures/mouth_baseColor.jpeg"
    },
    {
      "uri": "textures/mouth_metallicRoughness.png"
    },
    {
      "uri": "textures/mouth_normal.png"
    },
    {
      "uri": "textures/ligament_baseColor.jpeg"
    },
    {
      "uri": "textures/ligament_metallicRoughness.png"
    },
    {
      "uri": "textures/ligament_normal.png"
    },
    {
      "uri": "textures/coloon_baseColor.jpeg"
    },
    {
      "uri": "textures/coloon_metallicRoughness.png"
    },
    {
      "uri": "textures/coloon_normal.png"
    }
  ],
  "materials": [
    {
      "doubleSided": true,
      "name": "bladder",
      "normalTexture": {
        "index": 2
      },
      "occlusionTexture": {
        "index": 1
      },
      "pbrMetallicRoughness": {
        "baseColorTexture": {
          "index": 0
        },
        "metallicRoughnessTexture": {
          "index": 1
        }
      }
    },
    {
      "doubleSided": true,
      "name": "teeth",
      "normalTexture": {
        "index": 5
      },
      "occlusionTexture": {
        "index": 4
      },
      "pbrMetallicRoughness": {
        "baseColorTexture": {
          "index": 3
        },
        "metallicRoughnessTexture": {
          "index": 4
        }
      }
    },
    {
      "doubleSided": true,
      "name": "stomach",
      "normalTexture": {
        "index": 8
      },
      "occlusionTexture": {
        "index": 7
      },
      "pbrMetallicRoughness": {
        "baseColorTexture": {
          "index": 6
        },
        "metallicRoughnessTexture": {
          "index": 7
        }
      }
    },
    {
      "doubleSided": true,
      "name": "small_intense",
      "normalTexture": {
        "index": 11
      },
      "occlusionTexture": {
        "index": 10
      },
      "pbrMetallicRoughness": {
        "baseColorTexture": {
          "index": 9
        },
        "metallicRoughnessTexture": {
          "index": 10
        }
      }
    },
    {
      "doubleSided": true,
      "name": "pancreas",
      "normalTexture": {
        "index": 14
      },
      "occlusionTexture": {
        "index": 13
      },
      "pbrMetallicRoughness": {
        "baseColorTexture": {
          "index": 12
        },
        "metallicRoughnessTexture": {
          "index": 13
        }
      }
    },
    {
      "doubleSided": true,
      "name": "mouth",
      "normalTexture": {
        "index": 17
      },
      "occlusionTexture": {
        "index": 16
      },
      "pbrMetallicRoughness": {
        "baseColorTexture": {
          "index": 15
        },
        "metallicRoughnessTexture": {
          "index": 16
        }
      }
    },
    {
      "doubleSided": true,
      "name": "ligament",
      "normalTexture": {
        "index": 20
      },
      "occlusionTexture": {
        "index": 19
      },
      "pbrMetallicRoughness": {
        "baseColorTexture": {
          "index": 18
        },
        "metallicRoughnessTexture": {
          "index": 19
        }
      }
    },
    {
      "doubleSided": true,
      "name": "coloon",
      "normalTexture": {
        "index": 23
      },
      "occlusionTexture": {
        "index": 22
      },
      "pbrMetallicRoughness": {
        "baseColorTexture": {
          "index": 21
        },
        "metallicRoughnessTexture": {
          "index": 22
        }
      }
    }
  ],
  "meshes": [
    {
      "name": "defaultMaterial",
      "primitives": [
        {
          "attributes": {
            "NORMAL": 1,
            "POSITION": 0,
            "TANGENT": 2,
            "TEXCOORD_0": 3,
            "TEXCOORD_1": 4,
            "TEXCOORD_2": 5,
            "TEXCOORD_3": 6
          },
          "indices": 7,
          "material": 7,
          "mode": 4
        }
      ]
    },
    {
      "name": "defaultMaterial",
      "primitives": [
        {
          "attributes": {
            "NORMAL": 9,
            "POSITION": 8,
            "TANGENT": 10,
            "TEXCOORD_0": 11
          },
          "indices": 12,
          "material": 6,
          "mode": 4
        }
      ]
    },
    {
      "name": "defaultMaterial",
      "primitives": [
        {
          "attributes": {
            "NORMAL": 14,
            "POSITION": 13,
            "TANGENT": 15,
            "TEXCOORD_0": 16
          },
          "indices": 17,
          "material": 5,
          "mode": 4
        }
      ]
    },
    {
      "name": "defaultMaterial",
      "primitives": [
        {
          "attributes": {
            "NORMAL": 19,
            "POSITION": 18,
            "TANGENT": 20,
            "TEXCOORD_0": 21
          },
          "indices": 22,
          "material": 4,
          "mode": 4
        }
      ]
    },
    {
      "name": "defaultMaterial",
      "primitives": [
        {
          "attributes": {
            "NORMAL": 24,
            "POSITION": 23,
            "TANGENT": 25,
            "TEXCOORD_0": 26
          },
          "indices": 27,
          "material": 3,
          "mode": 4
        }
      ]
    },
    {
      "name": "defaultMaterial",
      "primitives": [
        {
          "attributes": {
            "NORMAL": 29,
            "POSITION": 28,
            "TANGENT": 30,
            "TEXCOORD_0": 31
          },
          "indices": 32,
          "material": 2,
          "mode": 4
        }
      ]
    },
    {
      "name": "defaultMaterial",
      "primitives": [
        {
          "attributes": {
            "NORMAL": 34,
            "POSITION": 33,
            "TANGENT": 35,
            "TEXCOORD_0": 36
          },
          "indices": 37,
          "material": 1,
          "mode": 4
        }
      ]
    },
    {
      "name": "defaultMaterial",
      "primitives": [
        {
          "attributes": {
            "NORMAL": 39,
            "POSITION": 38,
            "TANGENT": 40,
            "TEXCOORD_0": 41
          },
          "indices": 42,
          "material": 0,
          "mode": 4
        }
      ]
    }
  ],
  "nodes": [
    {
      "children": [
        1
      ],
      "matrix": [
        1.0,
        0.0,
        0.0,
        0.0,
        0.0,
        2.220446049250313e-16,
        -1.0,
        0.0,
        0.0,
        1.0,
        2.220446049250313e-16,
        0.0,
        0.0,
        0.0,
        0.0,
        1.0
      ],
      "name": "Sketchfab_model"
    },
    {
      "children": [
        2,
        4,
        6,
        8,
        10,
        12,
        14,
        16
      ],
      "matrix": [
        1.0,
        0.0,
        0.0,
        0.0,
        0.0,
        -4.371139006309477e-08,
        0.999999999999999,
        0.0,
        0.0,
        -0.999999999999999,
        -4.371139006309477e-08,
        0.0,
        0.0,
        0.0,
        0.0,
        1.0
      ],
      "name": "Collada visual scene group"
    },
    {
      "children": [
        3
      ],
      "name": "Digestive_Colon_Geo_low1"
    },
    {
      "mesh": 0,
      "name": "defaultMaterial"
    },
    {
      "children": [
        5
      ],
      "name": "Falciform_Ligament_low"
    },
    {
      "mesh": 1,
      "name": "defaultMaterial"
    },
    {
      "children": [
        7
      ],
      "name": "Digestive_Mouth_Geo_low"
    },
    {
      "mesh": 2,
      "name": "defaultMaterial"
    },
    {
      "children": [
        9
      ],
      "name": "Endocrine_Pancreas_Geo_low"
    },
    {
      "mesh": 3,
      "name": "defaultMaterial"
    },
    {
      "children": [
        11
      ],
      "name": "Digestive_Small_Intestine_Geo_low"
    },
    {
      "mesh": 4,
      "name": "defaultMaterial"
    },
    {
      "children": [
        13
      ],
      "name": "Digestive_Stomach_Geo_low"
    },
    {
      "mesh": 5,
      "name": "defaultMaterial"
    },
    {
      "children": [
        15
      ],
      "name": "Male_teeth_low"
    },
    {
      "mesh": 6,
      "name": "defaultMaterial"
    },
    {
      "children": [
        17
      ],
      "name": "Digestive_Gall_Bladder_Geo_low"
    },
    {
      "mesh": 7,
      "name": "defaultMaterial"
    }
  ],
  "samplers": [
    {
      "magFilter": 9729,
      "minFilter": 9987,
      "wrapS": 10497,
      "wrapT": 10497
    }
  ],
  "scene": 0,
  "scenes": [
    {
      "name": "Sketchfab_Scene",
      "nodes": [
        0
      ]
    }
  ],
  "textures": [
    {
      "sampler": 0,
      "source": 0
    },
    {
      "sampler": 0,
      "source": 1
    },
    {
      "sampler": 0,
      "source": 2
    },
    {
      "sampler": 0,
      "source": 3
    },
    {
      "sampler": 0,
      "source": 4
    },
    {
      "sampler": 0,
      "source": 5
    },
    {
      "sampler": 0,
      "source": 6
    },
    {
      "sampler": 0,
      "source": 7
    },
    {
      "sampler": 0,
      "source": 8
    },
    {
      "sampler": 0,
      "source": 9
    },
    {
      "sampler": 0,
      "source": 10
    },
    {
      "sampler": 0,
      "source": 11
    },
    {
      "sampler": 0,
      "source": 12
    },
    {
      "sampler": 0,
      "source": 13
    },
    {
      "sampler": 0,
      "source": 14
    },
    {
      "sampler": 0,
      "source": 15
    },
    {
      "sampler": 0,
      "source": 16
    },
    {
      "sampler": 0,
      "source": 17
    },
    {
      "sampler": 0,
      "source": 18
    },
    {
      "sampler": 0,
      "source": 19
    },
    {
      "sampler": 0,
      "source": 20
    },
    {
      "sampler": 0,
      "source": 21
    },
    {
      "sampler": 0,
      "source": 22
    },
    {
      "sampler": 0,
      "source": 23
    }
  ]
}
